<?xml version="1.0" standalone="no"?>
<!DOCTYPE svg PUBLIC "-//W3C//DTD SVG 20010904//EN"
 "http://www.w3.org/TR/2001/REC-SVG-20010904/DTD/svg10.dtd">
<svg version="1.0" xmlns="http://www.w3.org/2000/svg"
 width="195.000000pt" height="195.000000pt" viewBox="0 0 195.000000 195.000000"
 preserveAspectRatio="xMidYMid meet">
<metadata>
Created by potrace 1.11, written by Peter Selinger 2001-2013
</metadata>
<g transform="translate(0.000000,195.000000) scale(0.100000,-0.100000)"
fill="#000000" stroke="none">
<path d="M961 1563 c-6 -10 -11 -15 -11 -11 0 4 -133 -125 -295 -286 -162
-162 -297 -291 -300 -288 -3 3 -5 0 -5 -6 0 -11 -150 -162 -161 -162 -3 0 -6
-7 -6 -15 0 -8 2 -13 4 -11 2 2 96 -88 209 -200 113 -112 208 -204 212 -204 4
0 34 28 67 61 33 34 71 70 84 80 13 11 20 19 16 19 -4 0 12 16 35 35 23 19 38
35 34 35 -4 0 1 6 11 14 18 13 17 14 -7 30 -34 22 -75 85 -81 124 -3 17 -8 35
-11 41 -4 5 -2 12 3 16 6 3 8 12 5 20 -8 21 25 86 62 120 49 46 58 52 77 49 9
-1 17 1 17 5 0 4 25 9 56 10 31 1 54 -2 51 -6 -3 -4 6 -9 19 -9 13 -1 40 -14
59 -28 40 -31 90 -110 82 -130 -3 -8 -1 -17 6 -20 9 -3 8 -5 -1 -5 -10 -1 -10
-6 -2 -21 6 -11 7 -20 2 -20 -5 0 -9 -10 -9 -23 -1 -28 -42 -96 -72 -117 -19
-13 -32 -58 -13 -46 5 3 15 -6 22 -19 7 -14 17 -25 22 -25 10 0 68 -60 68 -71
0 -5 6 -8 13 -6 6 1 11 -4 10 -10 -2 -7 1 -13 7 -13 5 0 29 -20 52 -45 23 -25
45 -45 49 -45 4 0 101 93 217 207 l210 208 -19 24 c-10 13 -19 21 -19 18 0 -3
-13 6 -28 21 -15 15 -26 30 -24 35 2 4 -3 7 -10 7 -7 0 -22 13 -33 29 -10 16
-23 28 -27 25 -4 -3 -14 8 -22 23 -8 15 -15 25 -16 22 0 -4 -127 120 -283 275
-156 154 -290 287 -299 294 -14 11 -18 10 -27 -5z"/>
</g>
</svg>
